<svg width="32" height="32" viewBox="0 0 32 32" fill="none" xmlns="http://www.w3.org/2000/svg">
  <defs>
    <linearGradient id="pulse-gradient" x1="0%" y1="0%" x2="100%" y2="100%">
      <stop offset="0%" style="stop-color:#00e0ff;stop-opacity:1" />
      <stop offset="100%" style="stop-color:#ff005c;stop-opacity:1" />
    </linearGradient>
  </defs>
  
  <!-- Heart shape with pulse line -->
  <path d="M16 28c-1.2 0-2.4-.4-3.2-1.2C8.8 22.8 4 18.4 4 13.6c0-4.8 3.6-8.4 8.4-8.4 2.4 0 4.4 1.2 5.6 2.8 1.2-1.6 3.2-2.8 5.6-2.8 4.8 0 8.4 3.6 8.4 8.4 0 4.8-4.8 9.2-8.8 13.2-.8.8-2 1.2-3.2 1.2z" fill="url(#pulse-gradient)" opacity="0.8"/>
  
  <!-- Pulse line -->
  <path d="M6 16h4l2-6 4 12 2-6h4l2 4h4" stroke="#00e0ff" stroke-width="2" fill="none" stroke-linecap="round" stroke-linejoin="round"/>
  
  <!-- Glow effect -->
  <circle cx="16" cy="16" r="14" fill="none" stroke="url(#pulse-gradient)" stroke-width="1" opacity="0.3"/>
</svg>
