<svg viewBox="0 0 200 200" xmlns="http://www.w3.org/2000/svg">
  <defs>
    <linearGradient id="grad1" x1="0%" y1="0%" x2="100%" y2="100%">
      <stop offset="0%" style="stop-color:#17A2B8;stop-opacity:1" />
      <stop offset="100%" style="stop-color:#28C76F;stop-opacity:1" />
    </linearGradient>
  </defs>
  <path fill="url(#grad1)" d="M48.5,-59.1C62.9,-50.2,74.7,-35.1,79.5,-18.2C84.4,-1.3,82.3,17.4,72,32.2C61.7,47,43.3,57.9,25.3,64.3C7.4,70.7,-10,72.6,-26.8,67.6C-43.6,62.6,-59.8,50.7,-68.2,35.4C-76.6,20.1,-77.2,1.5,-72.1,-15.1C-67,-31.7,-56.3,-46.3,-42.6,-55.1C-28.9,-63.9,-12.2,-66.8,4.1,-68.6C20.4,-70.4,40.8,-71.9,48.5,-59.1Z" transform="translate(100 100)" />
</svg>